#N canvas 139 356 1301 714 10;
#N canvas -8 -8 1920 997 echovortex 0;
#X obj 159 62 *~ 1;
#X obj 172 36 r ingain;
#X obj 85 62 send~ dry;
#X obj 42 216 delwrite~ ldelay1 120000;
#X obj 293 213 delwrite~ rdelay1 120000;
#X obj 76 193 delwrite~ ldelay2 120000;
#X obj 294 188 delwrite~ rdelay2 120000;
#X obj 236 250 receive~ dry;
#X obj 326 251 r drylevel;
#X obj 292 322 *~ 1;
#X obj 110 33 adc~;
#X obj 260 537 dac~;
#N canvas 1 80 733 469 del1fb 0;
#X obj 140 63 switch~;
#X obj -432 290 outlet~;
#X obj -324 284 outlet~;
#X obj -288 10 vd~ ldelay1;
#X obj -128 72 r wetlevel;
#X obj -449 91 r lfb;
#X obj -133 116 r rfb;
#X obj -340 112 r l2rfb;
#X obj 3 38 r r2lfb;
#X obj -144 -12 vd~ rdelay1;
#X obj 142 -13 r deltoggle;
#X obj 133 29 tgl 15 0 empty empty empty 17 7 0 10 -262144 -1 -1 0
1;
#X obj 47 -33 loadbang;
#X obj -305 -68 r ldamt;
#X obj -151 -85 r rdamt;
#X obj -301 -39 line~;
#X obj -147 -56 line~;
#X obj -434 148 *~ 0;
#X obj -378 149 *~ 0;
#X obj -273 141 *~ 0;
#X obj -215 141 *~ 0;
#X obj -150 175 *~ 0;
#X obj -23 97 *~ 0;
#X obj -245 300 send~ wetl2;
#X obj -194 263 send~ wetr2;
#X connect 3 0 18 0;
#X connect 3 0 19 0;
#X connect 4 0 19 1;
#X connect 4 0 20 1;
#X connect 5 0 17 1;
#X connect 6 0 21 1;
#X connect 7 0 18 1;
#X connect 8 0 22 1;
#X connect 9 0 17 0;
#X connect 9 0 20 0;
#X connect 9 0 21 0;
#X connect 9 0 22 0;
#X connect 10 0 11 0;
#X connect 11 0 0 0;
#X connect 12 0 11 0;
#X connect 13 0 15 0;
#X connect 14 0 16 0;
#X connect 15 0 3 0;
#X connect 16 0 9 0;
#X connect 17 0 1 0;
#X connect 18 0 2 0;
#X connect 19 0 23 0;
#X connect 20 0 24 0;
#X connect 21 0 2 0;
#X connect 22 0 1 0;
#X restore 41 118 pd del1fb;
#N canvas 868 106 744 464 del2fb 0;
#X obj 140 63 switch~;
#X obj -432 290 outlet~;
#X obj -324 284 outlet~;
#X obj -128 72 r wetlevel;
#X obj -449 91 r lfb;
#X obj -133 116 r rfb;
#X obj -340 112 r l2rfb;
#X obj 3 38 r r2lfb;
#X obj 142 -13 r deltoggle;
#X obj 133 29 tgl 15 0 empty empty empty 17 7 0 10 -262144 -1 -1 1
1;
#X obj -150 32 vd~ rdelay2;
#X obj -310 49 vd~ ldelay2;
#X obj -315 -9 r ldamt;
#X obj -161 -26 r rdamt;
#X obj -311 20 line~;
#X obj -157 3 line~;
#X obj -434 148 *~ 0;
#X obj -378 148 *~ 0;
#X obj -273 141 *~ 0;
#X obj -215 141 *~ 0;
#X obj -150 174 *~ 0;
#X obj -24 97 *~ 0;
#X obj -260 335 send~ wetl;
#X obj -209 297 send~ wetr;
#X connect 3 0 18 1;
#X connect 3 0 19 1;
#X connect 4 0 16 1;
#X connect 5 0 20 1;
#X connect 6 0 17 1;
#X connect 7 0 21 1;
#X connect 8 0 9 0;
#X connect 9 0 0 0;
#X connect 10 0 16 0;
#X connect 10 0 19 0;
#X connect 10 0 20 0;
#X connect 10 0 21 0;
#X connect 11 0 17 0;
#X connect 11 0 18 0;
#X connect 12 0 14 0;
#X connect 13 0 15 0;
#X connect 14 0 11 0;
#X connect 15 0 10 0;
#X connect 16 0 1 0;
#X connect 17 0 2 0;
#X connect 18 0 22 0;
#X connect 19 0 23 0;
#X connect 20 0 2 0;
#X connect 21 0 1 0;
#X restore 301 125 pd del2fb;
#X obj 308 376 *~ 0.1;
#X obj 342 316 r outgain;
#N canvas 1 80 1301 714 midictl 0;
#N canvas 1 80 1033 386 sliders 1;
#X obj 42 10 ctlin 0;
#X obj 43 43 / 127;
#X floatatom 43 100 5 0 0 0 - - -;
#X obj 44 71 * 3;
#X obj 43 130 s ingain;
#X obj 135 12 ctlin 1;
#X obj 137 44 / 127;
#X floatatom 137 101 5 0 0 0 - - -;
#X obj 138 72 * 3;
#X obj 137 131 s outgain;
#X obj 251 44 / 127;
#X floatatom 251 101 5 0 0 0 - - -;
#X obj 249 12 ctlin 2;
#X obj 252 70 * 2;
#X obj 251 132 s drylevel;
#X obj 352 39 / 127;
#X floatatom 352 96 5 0 0 0 - - -;
#X obj 353 65 * 2;
#X obj 350 7 ctlin 3;
#X obj 352 127 s wetlevel;
#X obj 448 39 / 127;
#X floatatom 448 96 5 0 0 0 - - -;
#X obj 446 7 ctlin 4;
#X obj 448 127 s lfb;
#X obj 513 39 / 127;
#X floatatom 513 96 5 0 0 0 - - -;
#X obj 513 127 s l2rfb;
#X obj 513 5 ctlin 5;
#X obj 594 45 / 127;
#X floatatom 594 102 5 0 0 0 - - -;
#X obj 675 35 / 127;
#X floatatom 675 92 5 0 0 0 - - -;
#X obj 592 13 ctlin 6;
#X obj 673 3 ctlin 7;
#X obj 595 133 s r2lfb;
#X obj 674 123 s rfb;
#X obj 449 66 * 0.7;
#X obj 514 65 * 0.7;
#X obj 595 71 * 0.7;
#X obj 676 61 * 0.7;
#X connect 0 0 1 0;
#X connect 1 0 3 0;
#X connect 2 0 4 0;
#X connect 3 0 2 0;
#X connect 5 0 6 0;
#X connect 6 0 8 0;
#X connect 7 0 9 0;
#X connect 8 0 7 0;
#X connect 10 0 13 0;
#X connect 11 0 14 0;
#X connect 12 0 10 0;
#X connect 13 0 11 0;
#X connect 15 0 17 0;
#X connect 16 0 19 0;
#X connect 17 0 16 0;
#X connect 18 0 15 0;
#X connect 20 0 36 0;
#X connect 21 0 23 0;
#X connect 22 0 20 0;
#X connect 24 0 37 0;
#X connect 25 0 26 0;
#X connect 27 0 24 0;
#X connect 28 0 38 0;
#X connect 29 0 34 0;
#X connect 30 0 39 0;
#X connect 31 0 35 0;
#X connect 32 0 28 0;
#X connect 33 0 30 0;
#X connect 36 0 21 0;
#X connect 37 0 25 0;
#X connect 38 0 29 0;
#X connect 39 0 31 0;
#X restore 21 -14 pd sliders;
#N canvas 388 161 1301 714 knobs 1;
#X obj 43 43 / 127;
#X obj 137 44 / 127;
#X obj 251 44 / 127;
#X floatatom 251 101 5 0 0 0 - - -;
#X obj 352 39 / 127;
#X floatatom 352 96 5 0 0 0 - - -;
#X obj 448 39 / 127;
#X floatatom 448 152 5 0 0 0 - - -;
#X obj 42 10 ctlin 16;
#X obj 135 12 ctlin 17;
#X obj 249 12 ctlin 18;
#X obj 350 7 ctlin 19;
#X obj 446 7 ctlin 20;
#X obj 639 90 r knobfb;
#X obj 45 181 s base;
#X obj 45 71 * 2;
#X obj 45 101 + 1;
#X obj 127 194 pow 0;
#X msg 161 152 2;
#X floatatom 127 216 5 0 0 0 - - -;
#X obj 124 151 int;
#X obj 129 121 - 5.8;
#X obj 138 72 * 12;
#X obj 246 205 pow 0;
#X floatatom 246 227 5 0 0 0 - - -;
#X obj 241 170 int;
#X msg 278 171 3;
#X obj 250 137 - 3.8;
#X obj 252 69 * 8;
#X obj 45 131 * 1000;
#X floatatom 45 153 5 0 0 0 - - -;
#X obj 310 331 s knobfb;
#X obj 574 89 r base;
#X obj 608 161 * 1;
#X obj 601 122 bng 15 250 50 0 empty empty empty 17 7 0 10 -262144
-1 -1;
#X obj 609 186 int;
#X floatatom 608 220 5 0 0 0 - - -;
#X obj 592 271 + 0;
#X floatatom 570 223 5 0 0 0 - - -;
#X floatatom 582 320 5 0 0 0 - - -;
#X obj 353 65 * 10;
#X obj 453 103 + 1;
#X obj 449 66 * 9;
#X obj 448 190 int;
#X obj 403 234 * 1;
#X obj 408 209 bng 15 250 50 0 empty empty empty 17 7 0 10 -262144
-1 -1;
#X floatatom 403 256 5 0 0 0 - - -;
#X obj 512 32 ctlin 32;
#X obj 592 13 ctlin 48;
#X obj 674 3 ctlin 64;
#X obj 516 145 sel 127;
#X obj 677 269 + 0;
#X floatatom 655 221 5 0 0 0 - - -;
#X floatatom 667 318 5 0 0 0 - - -;
#X obj 587 38 sel 127;
#X obj 702 39 sel 127;
#X obj 575 370 s ldamt;
#X obj 686 373 s rdamt;
#X obj 633 285 s damt;
#X obj 789 -19 r div10;
#X obj 856 197 s knobfb;
#X floatatom 821 55 5 0 0 0 - - -;
#X obj 674 -115 loadbang;
#X msg 727 -60 1;
#X obj 847 10 r knobfb;
#X obj 805 120 * 1;
#X msg 786 76 0.1;
#X obj 912 -12 r times10;
#X msg 899 45 10;
#X obj 780 -148 r div2;
#X msg 785 -102 0.5;
#X obj 852 -149 r times2;
#X msg 857 -102 2;
#X obj 979 34 r div3;
#X obj 1066 29 r times3;
#X msg 921 62 0.333333;
#X msg 1089 68 3;
#X obj 530 82 r setleft;
#X obj 732 166 r setright;
#X obj 598 -74 r setboth;
#X connect 0 0 15 0;
#X connect 1 0 22 0;
#X connect 2 0 28 0;
#X connect 3 0 27 0;
#X connect 4 0 40 0;
#X connect 5 0 44 0;
#X connect 6 0 42 0;
#X connect 7 0 43 0;
#X connect 8 0 0 0;
#X connect 9 0 1 0;
#X connect 10 0 2 0;
#X connect 11 0 4 0;
#X connect 12 0 6 0;
#X connect 13 0 33 1;
#X connect 13 0 34 0;
#X connect 15 0 16 0;
#X connect 16 0 29 0;
#X connect 17 0 19 0;
#X connect 18 0 17 0;
#X connect 19 0 31 0;
#X connect 20 0 17 1;
#X connect 21 0 20 0;
#X connect 21 0 18 0;
#X connect 22 0 21 0;
#X connect 23 0 24 0;
#X connect 24 0 31 0;
#X connect 25 0 23 1;
#X connect 26 0 23 0;
#X connect 27 0 26 0;
#X connect 27 0 25 0;
#X connect 28 0 3 0;
#X connect 29 0 30 0;
#X connect 30 0 14 0;
#X connect 32 0 33 0;
#X connect 33 0 35 0;
#X connect 34 0 33 0;
#X connect 35 0 36 0;
#X connect 36 0 37 1;
#X connect 36 0 51 1;
#X connect 36 0 58 0;
#X connect 37 0 39 0;
#X connect 38 0 37 0;
#X connect 39 0 56 0;
#X connect 40 0 5 0;
#X connect 41 0 7 0;
#X connect 42 0 41 0;
#X connect 43 0 44 1;
#X connect 43 0 45 0;
#X connect 44 0 46 0;
#X connect 45 0 44 0;
#X connect 46 0 31 0;
#X connect 47 0 50 0;
#X connect 48 0 54 0;
#X connect 49 0 55 0;
#X connect 50 0 38 0;
#X connect 51 0 53 0;
#X connect 52 0 51 0;
#X connect 53 0 57 0;
#X connect 54 0 52 0;
#X connect 54 0 38 0;
#X connect 55 0 52 0;
#X connect 59 0 66 0;
#X connect 61 0 65 1;
#X connect 62 0 63 0;
#X connect 63 0 61 0;
#X connect 64 0 61 0;
#X connect 65 0 60 0;
#X connect 66 0 65 0;
#X connect 67 0 68 0;
#X connect 68 0 65 0;
#X connect 69 0 70 0;
#X connect 70 0 65 0;
#X connect 71 0 72 0;
#X connect 72 0 65 0;
#X connect 73 0 75 0;
#X connect 74 0 76 0;
#X connect 75 0 65 0;
#X connect 76 0 65 0;
#X connect 77 0 38 0;
#X connect 78 0 52 0;
#X connect 79 0 52 0;
#X connect 79 0 38 0;
#X restore 103 -9 pd knobs;
#N canvas 1 80 1301 714 buttons 1;
#X obj 24 27 ctlin 43;
#X obj 97 30 r ldamt;
#X obj 153 31 r rdamt;
#X obj 32 55 sel 127;
#X obj 112 148 int;
#X obj 105 116 * 1;
#X msg 62 94 0.5;
#X floatatom 124 208 5 0 0 0 - - -;
#X obj 125 250 s ldamt;
#X obj 193 123 int;
#X obj 186 91 * 1;
#X floatatom 205 183 5 0 0 0 - - -;
#X obj 206 225 s rdamt;
#X obj 408 37 r ldamt;
#X obj 464 38 r rdamt;
#X obj 343 62 sel 127;
#X obj 423 155 int;
#X obj 416 123 * 1;
#X floatatom 435 215 5 0 0 0 - - -;
#X obj 436 257 s ldamt;
#X obj 504 130 int;
#X obj 497 98 * 1;
#X floatatom 516 190 5 0 0 0 - - -;
#X obj 517 232 s rdamt;
#X obj 335 34 ctlin 44;
#X msg 373 101 2;
#X obj 853 44 ctlin 58;
#X obj 927 51 ctlin 59;
#X obj 880 101 sel 127;
#X obj 877 145 s deltoggle;
#X obj 867 231 ctlin 42;
#X obj 867 266 sel 127;
#X obj 956 267 r wetlevel;
#X obj 937 346 + 0;
#X msg 910 312 0;
#X floatatom 939 389 5 0 0 0 - - -;
#X msg 809 351 \; wetlevel 0;
#X floatatom 977 308 5 0 0 0 - - -;
#X msg 895 350 0;
#X obj 925 420 + 0;
#X obj 921 468 s wetlevel;
#X obj 1079 75 ctlin 41;
#X obj 1160 80 ctlin 45;
#X obj 1071 137 sel 127;
#X obj 1170 134 sel 127;
#X msg 1078 182 1;
#X msg 1169 183 1;
#X msg 1111 183 0;
#X msg 1206 185 0;
#X obj 1132 258 + 0;
#X floatatom 1096 234 5 0 0 0 - - -;
#X obj 1141 216 bng 15 250 50 0 empty empty empty 17 7 0 10 -262144
-1 -1;
#X floatatom 1132 298 5 0 0 0 - - -;
#X obj 1132 317 sel 2;
#X msg 1125 361;
#X obj 1125 407 delay 1000;
#X msg 1126 450;
#X obj 643 173 ctlin;
#X floatatom 652 223 5 0 0 0 - - -;
#X floatatom 713 209 5 0 0 0 - - -;
#X obj 250 75 r bothtimes2;
#X obj 24 209 r bothdiv2;
#X obj 225 323 r ldamt;
#X obj 281 324 r rdamt;
#X obj 240 441 int;
#X obj 233 409 * 1;
#X floatatom 252 501 5 0 0 0 - - -;
#X obj 253 543 s ldamt;
#X obj 321 416 int;
#X obj 314 384 * 1;
#X floatatom 333 476 5 0 0 0 - - -;
#X obj 334 518 s rdamt;
#X msg 190 387 0.333333;
#X obj 152 502 r bothdiv3;
#X obj 532 385 r ldamt;
#X obj 588 386 r rdamt;
#X obj 547 503 int;
#X obj 540 471 * 1;
#X floatatom 559 563 5 0 0 0 - - -;
#X obj 560 605 s ldamt;
#X obj 628 478 int;
#X obj 621 446 * 1;
#X floatatom 640 538 5 0 0 0 - - -;
#X obj 641 580 s rdamt;
#X msg 497 449 3;
#X obj 459 564 r bothtimes3;
#X obj 815 250 r mute;
#X connect 0 0 3 0;
#X connect 1 0 5 1;
#X connect 2 0 10 1;
#X connect 3 0 6 0;
#X connect 4 0 7 0;
#X connect 5 0 4 0;
#X connect 6 0 5 0;
#X connect 6 0 10 0;
#X connect 7 0 8 0;
#X connect 9 0 11 0;
#X connect 10 0 9 0;
#X connect 11 0 12 0;
#X connect 13 0 17 1;
#X connect 14 0 21 1;
#X connect 15 0 25 0;
#X connect 16 0 18 0;
#X connect 17 0 16 0;
#X connect 18 0 19 0;
#X connect 20 0 22 0;
#X connect 21 0 20 0;
#X connect 22 0 23 0;
#X connect 24 0 15 0;
#X connect 25 0 17 0;
#X connect 25 0 21 0;
#X connect 26 0 28 0;
#X connect 27 0 28 0;
#X connect 28 0 29 0;
#X connect 30 0 31 0;
#X connect 31 0 34 0;
#X connect 31 0 36 0;
#X connect 31 1 38 0;
#X connect 32 0 33 1;
#X connect 32 0 37 0;
#X connect 33 0 35 0;
#X connect 34 0 33 0;
#X connect 35 0 39 1;
#X connect 38 0 39 0;
#X connect 39 0 40 0;
#X connect 41 0 43 0;
#X connect 42 0 44 0;
#X connect 43 0 45 0;
#X connect 43 1 47 0;
#X connect 44 0 46 0;
#X connect 44 1 48 0;
#X connect 45 0 50 0;
#X connect 46 0 49 1;
#X connect 46 0 51 0;
#X connect 47 0 50 0;
#X connect 48 0 49 1;
#X connect 48 0 51 0;
#X connect 49 0 52 0;
#X connect 50 0 49 0;
#X connect 51 0 50 0;
#X connect 52 0 53 0;
#X connect 53 0 54 0;
#X connect 54 0 55 0;
#X connect 55 0 56 0;
#X connect 57 0 58 0;
#X connect 57 1 59 0;
#X connect 60 0 25 0;
#X connect 61 0 6 0;
#X connect 62 0 65 1;
#X connect 63 0 69 1;
#X connect 64 0 66 0;
#X connect 65 0 64 0;
#X connect 66 0 67 0;
#X connect 68 0 70 0;
#X connect 69 0 68 0;
#X connect 70 0 71 0;
#X connect 72 0 65 0;
#X connect 72 0 69 0;
#X connect 73 0 72 0;
#X connect 74 0 77 1;
#X connect 75 0 81 1;
#X connect 76 0 78 0;
#X connect 77 0 76 0;
#X connect 78 0 79 0;
#X connect 80 0 82 0;
#X connect 81 0 80 0;
#X connect 82 0 83 0;
#X connect 84 0 77 0;
#X connect 84 0 81 0;
#X connect 85 0 84 0;
#X connect 86 0 34 0;
#X connect 86 0 36 0;
#X restore 127 184 pd buttons;
#X restore 605 194 pd midictl;
#X obj 16 329 receive~ wetl;
#X obj 133 355 receive~ wetr;
#X obj 54 454 *~ 0.1;
#X obj 150 460 *~ 0.1;
#X obj 980 464 loadbang;
#X msg 969 594 \; pd dsp 1;
#X msg 211 411 minvel 120;
#X obj 124 286 receive~ wetl2;
#X obj 173 313 receive~ wetr2;
#X connect 0 0 3 0;
#X connect 0 0 4 0;
#X connect 0 0 5 0;
#X connect 0 0 6 0;
#X connect 1 0 0 1;
#X connect 7 0 9 0;
#X connect 8 0 9 1;
#X connect 9 0 14 0;
#X connect 10 0 0 0;
#X connect 10 0 2 0;
#X connect 12 0 3 0;
#X connect 12 1 4 0;
#X connect 13 0 5 0;
#X connect 13 1 6 0;
#X connect 14 0 11 0;
#X connect 14 0 11 1;
#X connect 15 0 14 1;
#X connect 15 0 19 1;
#X connect 15 0 20 1;
#X connect 17 0 19 0;
#X connect 18 0 20 0;
#X connect 19 0 11 0;
#X connect 20 0 11 1;
#X connect 21 0 22 0;
#X connect 24 0 19 0;
#X connect 25 0 19 0;
#X restore 7 329 pd echovortex;
#X obj 17 46 vsl 15 128 0 127 0 0 ingain empty empty 0 -9 0 10 -262144
-1 -1 0 1;
#X text 45 22 OUT;
#X text 72 20 DRY;
#X text 103 22 WET;
#X text 52 3 GAINS;
#X text 15 21 IN;
#X text 144 23 L;
#X text 173 8 FEEDBACKS;
#X obj 46 45 vsl 15 128 0 127 0 0 outgain empty empty 0 -9 0 10 -262144
-1 -1 0 1;
#X obj 77 45 vsl 15 128 0 127 0 0 drylevel empty empty 0 -9 0 10 -262144
-1 -1 0 1;
#X obj 107 46 vsl 15 128 0 127 0 0 wetlevel empty empty 0 -9 0 10 -262144
-1 -1 0 1;
#X obj 142 46 vsl 15 128 0 127 0 0 lfb empty empty 0 -9 0 10 -262144
-1 -1 0 1;
#X obj 173 45 vsl 15 128 0 127 0 0 l2rfb empty empty 0 -9 0 10 -262144
-1 -1 0 1;
#X text 198 7;
#X text 169 22 L2R;
#X obj 209 45 vsl 15 128 0 127 0 0 r2lfb empty empty 0 -9 0 10 -262144
-1 -1 0 1;
#X obj 244 44 vsl 15 128 0 127 0 0 rfb empty empty 0 -9 0 10 -262144
-1 -1 0 1;
#X text 205 22 R2L;
#X text 245 21 R;
#X obj 14 199 hsl 256 15 0 127 0 0 base empty empty -2 -8 0 10 -262144
-1 -1 13300 1;
#X obj 14 249 bng 15 250 50 0 div10 empty empty 17 7 0 10 -262144 -1
-1;
#X obj 40 249 bng 15 250 50 0 div3 empty empty 17 7 0 10 -262144 -1
-1;
#X obj 67 249 bng 15 250 50 0 div2 empty empty 17 7 0 10 -262144 -1
-1;
#X obj 256 237 bng 15 250 50 0 times10 empty empty 17 7 0 10 -262144
-1 -1;
#X obj 197 238 bng 15 250 50 0 times2 empty empty 17 7 0 10 -262144
-1 -1;
#X obj 227 237 bng 15 250 50 0 times3 empty empty 17 7 0 10 -262144
-1 -1;
#X text 64 223 /2;
#X text 39 223 /3;
#X text 10 225 /10;
#X text 194 219 x2;
#X text 224 219 x3;
#X text 253 218 x10;
#X floatatom 107 223 10 0 0 0 - damt -;
#X floatatom 13 282 10 0 0 0 - ldamt -;
#X floatatom 209 277 10 0 0 0 - rdamt -;
#X text 102 265 L;
#X text 166 263 R;
#X text 102 186 BASE DELAY AMOUNT;
#X text 129 265 BOTH;
#X obj 98 286 bng 15 250 50 0 setleft empty empty 17 7 0 10 -262144
-1 -1;
#X obj 130 284 bng 15 250 50 0 setboth empty empty 17 7 0 10 -262144
-1 -1;
#X obj 163 281 bng 15 250 50 0 setright empty empty 17 7 0 10 -262144
-1 -1;
#X text 115 247 SET FOR;
#X text 321 32 PRESETS;
#X obj 336 47 bng 15 250 50 0 empty empty empty 17 7 0 10 -262144 -1
-1;
#X obj 304 48 bng 15 250 50 0 empty empty empty 17 7 0 10 -262144 -1
-1;
#X obj 367 48 bng 15 250 50 0 empty empty empty 17 7 0 10 -262144 -1
-1;
#X text 304 63 DONT WORK YET;
#X text 329 194 X2;
#X obj 348 194 bng 15 250 50 0 bothtimes2 empty empty 17 7 0 10 -262144
-1 -1;
#X text 328 213 /2;
#X obj 350 214 bng 15 250 50 0 bothdiv2 empty empty 17 7 0 10 -262144
-1 -1;
#X obj 381 113 bng 15 250 50 0 deltoggle empty empty 17 7 0 10 -262144
-1 -1;
#X text 297 111 SWITCH DELAY;
#X obj 391 92 bng 15 250 50 0 mute empty empty 17 7 0 10 -262144 -1
-1;
#X text 297 151 INSTANTANEOUS FOR BOTH CHANNELS;
#X text 328 246 X3;
#X obj 350 247 bng 15 250 50 0 bothtimes3 empty empty 17 7 0 10 -262144
-1 -1;
#X text 328 267 /3;
#X obj 351 269 bng 15 250 50 0 bothdiv3 empty empty 17 7 0 10 -262144
-1 -1;
#X text 284 91 HOLD TO MUTE WET;
